<svg version="1.1" id="Слой_1" xmlns="http://www.w3.org/2000/svg" xmlns:xlink="http://www.w3.org/1999/xlink" x="0px" y="0px"
	 width="130px" height="150px" viewBox="14 5 75 103">
<style type="text/css">
	.st0{fill:#1967EB;}
	.st1{fill:#F1F706;}
</style>
<g>
	<path class="st0" d="M59.6,75.1v-2.8c0-5,2-9.7,5.5-13.1C69.6,55,72,49.4,72,43.3c0-12.1-9.9-22-22-22c-0.8,0-1.7,0-2.5,0.1
		c-10.5,1.2-18.9,10-19.4,20.6c-0.4,6.4,2.1,12.6,6.6,17c3.6,3.5,5.7,8.3,5.7,13.2v2.8c0,3,2.4,5.4,5.4,5.4h8.4
		C57.2,80.5,59.6,78.1,59.6,75.1z M55.6,75.1c0,0.8-0.6,1.4-1.4,1.4h-8.4c-0.8,0-1.4-0.6-1.4-1.4v-2.8c0-6-2.5-11.8-6.9-16.1
		c-3.7-3.6-5.7-8.7-5.4-13.9c0.5-8.7,7.3-15.9,15.9-16.8c0.7-0.1,1.4-0.1,2.1-0.1c9.9,0,18,8.1,18,18c0,5-2,9.6-5.6,13
		c-4.3,4.1-6.8,9.9-6.8,16L55.6,75.1L55.6,75.1z"/>
	<path class="st0" d="M56.5,82.5h-13c-0.8,0-1.5,0.7-1.5,1.5s0.7,1.5,1.5,1.5h13c0.8,0,1.5-0.7,1.5-1.5S57.3,82.5,56.5,82.5z"/>
	<path class="st0" d="M58,88.8c0-0.8-0.7-1.5-1.5-1.5h-13c-0.8,0-1.5,0.7-1.5,1.5s0.7,1.5,1.5,1.5h13C57.3,90.3,58,89.6,58,88.8z"/>
	<path class="st1" d="M14.7,43.3h8.6c0.8,0,1.5-0.7,1.5-1.5s-0.7-1.5-1.5-1.5h-8.6c-0.8,0-1.5,0.7-1.5,1.5S13.9,43.3,14.7,43.3z"/>
	<path class="st1" d="M86.8,41.8c0-0.8-0.7-1.5-1.5-1.5h-8.6c-0.8,0-1.5,0.7-1.5,1.5s0.7,1.5,1.5,1.5h8.6
		C86.1,43.3,86.8,42.6,86.8,41.8z"/>
	<path class="st1" d="M48.5,6.5v8.6c0,0.8,0.7,1.5,1.5,1.5s1.5-0.7,1.5-1.5V6.5C51.5,5.7,50.8,5,50,5S48.5,5.7,48.5,6.5z"/>
	<path class="st1" d="M73.9,15.8l-6.1,6.1c-0.6,0.6-0.6,1.5,0,2.1c0.3,0.3,0.7,0.4,1.1,0.4s0.8-0.1,1.1-0.4l6.1-6.1
		c0.6-0.6,0.6-1.5,0-2.1C75.4,15.2,74.5,15.2,73.9,15.8z"/>
	<path class="st1" d="M32.2,59.5c-0.6-0.6-1.5-0.6-2.1,0L24,65.6c-0.6,0.6-0.6,1.5,0,2.1c0.3,0.3,0.7,0.4,1.1,0.4s0.8-0.1,1.1-0.4
		l6.1-6.1C32.8,61.1,32.8,60.1,32.2,59.5z"/>
	<path class="st1" d="M30.1,24c0.3,0.3,0.7,0.4,1.1,0.4s0.8-0.1,1.1-0.4c0.6-0.6,0.6-1.5,0-2.1l-6.1-6.1c-0.6-0.6-1.5-0.6-2.1,0
		c-0.6,0.6-0.6,1.5,0,2.1L30.1,24z"/>
	<path class="st1" d="M73.9,67.8c0.3,0.3,0.7,0.4,1.1,0.4s0.8-0.1,1.1-0.4c0.6-0.6,0.6-1.5,0-2.1l-6.1-6.1c-0.6-0.6-1.5-0.6-2.1,0
		s-0.6,1.5,0,2.1L73.9,67.8z"/>
	<path class="st0" d="M54.8,93.5c0-0.8-0.7-1.5-1.5-1.5h-6.5c-0.8,0-1.5,0.7-1.5,1.5s0.7,1.5,1.5,1.5h6.5
		C54.1,95,54.8,94.3,54.8,93.5z"/>
</g>
<polyline class="st1" points="67.8,40.8 67.9,41.8 67.9,43 67.9,43.8 67.9,44.5 67.9,45.4 67.8,46.2 67.6,47 67.4,47.8 67,49.3 
	66.4,50.8 65.7,52.1 65,53.2 64.4,54.1 63.7,55 62.8,55.9 61.2,57.5 60.1,58.8 59.4,59.9 58.8,60.8 58.4,61.5 58,62.2 57.7,62.9 
	57.3,63.8 57,64.6 56.8,65.1 56.5,66 56.3,66.7 56.1,67.6 56,68.2 55.9,68.8 55.8,69.5 55.7,70.1 55.7,70.5 55.7,71.3 55.6,71.8 
	55.6,72.6 55.6,73.1 55.6,73.8 55.6,74.6 55.6,75.3 55.4,75.8 55.1,76.2 54.6,76.5 54.2,76.5 53.2,76.5 52,76.5 50,76.5 47,76.5 
	45.6,76.5 44.9,76.3 44.6,75.8 44.4,75.1 44.4,74.1 44.4,72.8 44.3,71.3 44.2,69.7 44,68.4 43.8,67.3 43.3,65.5 42.7,64 42.2,62.7 
	41.5,61.5 40.8,60.3 40,59.1 39.3,58.2 38.7,57.5 37.8,56.5 36.9,55.6 36.1,54.7 35.3,53.6 34.7,52.7 34.2,51.8 33.9,51.3 33.3,50 
	32.8,48.6 32.5,47.3 32.2,45.7 32,44.2 32,42.9 32,41.5 32.2,40.5 32.5,39 32.9,37.8 33.2,37 33.5,36.2 33.9,35.3 34.3,34.5 
	35,33.5 35.6,32.7 36.2,31.8 36.6,31.3 37.5,30.5 38.1,29.9 38.5,29.5 39,29.1 40,28.4 41,27.8 42,27.2 43,26.7 44.3,26.2 
	45.6,25.9 46.7,25.6 48.5,25.4 50,25.3 51.6,25.5 53.5,25.7 55.5,26.2 57.7,27.1 59.6,28.1 60.6,28.8 62.1,30 63.1,31 64,32.1 
	64.8,33.1 65.3,33.9 66,35 66.6,36.3 67,37.6 67.3,38.5 67.6,39.8 "/>
<path class="st1" d="M9.1,28.4"/>
<path class="st1" d="M-161.8-58.8"/>
</svg>
