<svg version="1.1" id="Capa_1"
	 xmlns="http://www.w3.org/2000/svg" xmlns:xlink="http://www.w3.org/1999/xlink" x="0px" y="0px" width="310px" height="128px" viewBox="0 28 310 128">
<style type="text/css">
	.st0{fill:#283480;}
	.st1{fill:#000105;}
	.st2{fill:#FADCEB;}
	.st3{fill:#CC4B4C;}
	.st4{fill:#008CBE;}
	.st5{fill:#FDE0A6;}
	.st6{fill:#01963C;}
	.st7{fill:#000102;}
	.st8{fill:#FFFFD8;}
	.st10{font-size:12px;font-family: sans-serif; }
</style>
<path class="st0" d="M87.5,136.5h-76v-104h76c3.3,0,6,2.7,6,6v92C93.5,133.8,90.8,136.5,87.5,136.5z"/>
<rect x="71.5" y="32.5" class="st1" width="10" height="104"/>
<g>
	<rect x="11.5" y="66.5" class="st2" width="60" height="36"/>
	<rect x="81.5" y="66.5" class="st2" width="12" height="36"/>
</g>
<polygon class="st3" points="31.5,146.5 25.5,142.5 19.5,146.5 19.5,136.5 31.5,136.5 "/>
<path class="st4" d="M183.5,135.5h-76v-104h76c3.3,0,6,2.7,6,6v92C189.5,132.8,186.8,135.5,183.5,135.5z"/>
<rect x="167.5" y="31.5" width="10" height="104"/>
<g>
	<rect x="107.5" y="65.5" class="st5" width="60" height="36"/>
	<rect x="177.5" y="65.5" class="st5" width="12" height="36"/>
</g>
<polygon class="st3" points="127.5,145.5 121.5,141.5 115.5,145.5 115.5,135.5 127.5,135.5 "/>
<path class="st6" d="M279.5,135h-76V31h76c3.3,0,6,2.7,6,6v92C285.5,132.3,282.8,135,279.5,135z"/>
<rect x="263.5" y="31" class="st7" width="10" height="104"/>
<g>
	<rect x="203.5" y="65" class="st8" width="60" height="36"/>
	<rect x="273.5" y="65" class="st8" width="12" height="36"/>
</g>
<polygon class="st3" points="223.5,145 217.5,141 211.5,145 211.5,135 223.5,135 "/>
<text x="48" y="153" class="st10">RU</text>
<text x="146" y="153" class="st10">UK</text>
<text x="239" y="153" class="st10">EN</text>
</svg>
